<svg width="170" height="47" viewBox="0 0 170 47" fill="none" xmlns="http://www.w3.org/2000/svg">
<rect x="0.5" y="0.5" width="169" height="46" rx="11.5" fill="#121212"/>
<rect x="0.5" y="0.5" width="169" height="46" rx="11.5" stroke="#34C94B"/>
<path d="M26.1394 21.216C25.8514 20.688 25.4554 20.286 24.9514 20.01C24.4474 19.734 23.8594 19.596 23.1874 19.596C22.4434 19.596 21.7834 19.764 21.2074 20.1C20.6314 20.436 20.1814 20.916 19.8574 21.54C19.5334 22.164 19.3714 22.884 19.3714 23.7C19.3714 24.54 19.5334 25.272 19.8574 25.896C20.1934 26.52 20.6554 27 21.2434 27.336C21.8314 27.672 22.5154 27.84 23.2954 27.84C24.2554 27.84 25.0414 27.588 25.6534 27.084C26.2654 26.568 26.6674 25.854 26.8594 24.942H22.5394V23.016H29.3434V25.212C29.1754 26.088 28.8154 26.898 28.2634 27.642C27.7114 28.386 26.9974 28.986 26.1214 29.442C25.2574 29.886 24.2854 30.108 23.2054 30.108C21.9934 30.108 20.8954 29.838 19.9114 29.298C18.9394 28.746 18.1714 27.984 17.6074 27.012C17.0554 26.04 16.7794 24.936 16.7794 23.7C16.7794 22.464 17.0554 21.36 17.6074 20.388C18.1714 19.404 18.9394 18.642 19.9114 18.102C20.8954 17.55 21.9874 17.274 23.1874 17.274C24.6034 17.274 25.8334 17.622 26.8774 18.318C27.9214 19.002 28.6414 19.968 29.0374 21.216H26.1394ZM32.7358 18.84C32.2918 18.84 31.9198 18.702 31.6198 18.426C31.3318 18.138 31.1878 17.784 31.1878 17.364C31.1878 16.944 31.3318 16.596 31.6198 16.32C31.9198 16.032 32.2918 15.888 32.7358 15.888C33.1798 15.888 33.5458 16.032 33.8338 16.32C34.1338 16.596 34.2838 16.944 34.2838 17.364C34.2838 17.784 34.1338 18.138 33.8338 18.426C33.5458 18.702 33.1798 18.84 32.7358 18.84ZM33.9778 20.028V30H31.4578V20.028H33.9778ZM40.8756 27.678L43.3956 20.028H46.0776L42.3876 30H39.3276L35.6556 20.028H38.3556L40.8756 27.678ZM57.013 24.798C57.013 25.158 56.989 25.482 56.941 25.77H49.651C49.711 26.49 49.963 27.054 50.407 27.462C50.851 27.87 51.397 28.074 52.045 28.074C52.981 28.074 53.647 27.672 54.043 26.868H56.761C56.473 27.828 55.921 28.62 55.105 29.244C54.289 29.856 53.287 30.162 52.099 30.162C51.139 30.162 50.275 29.952 49.507 29.532C48.751 29.1 48.157 28.494 47.725 27.714C47.305 26.934 47.095 26.034 47.095 25.014C47.095 23.982 47.305 23.076 47.725 22.296C48.145 21.516 48.733 20.916 49.489 20.496C50.245 20.076 51.115 19.866 52.099 19.866C53.047 19.866 53.893 20.07 54.637 20.478C55.393 20.886 55.975 21.468 56.383 22.224C56.803 22.968 57.013 23.826 57.013 24.798ZM54.403 24.078C54.391 23.43 54.157 22.914 53.701 22.53C53.245 22.134 52.687 21.936 52.027 21.936C51.403 21.936 50.875 22.128 50.443 22.512C50.023 22.884 49.765 23.406 49.669 24.078H54.403ZM71.3994 17.436V19.47H66.1614V22.692H70.1754V24.69H66.1614V30H63.6414V17.436H71.3994ZM82.7063 24.798C82.7063 25.158 82.6823 25.482 82.6343 25.77H75.3443C75.4043 26.49 75.6563 27.054 76.1003 27.462C76.5443 27.87 77.0903 28.074 77.7383 28.074C78.6743 28.074 79.3403 27.672 79.7363 26.868H82.4543C82.1663 27.828 81.6143 28.62 80.7983 29.244C79.9823 29.856 78.9803 30.162 77.7923 30.162C76.8323 30.162 75.9683 29.952 75.2003 29.532C74.4443 29.1 73.8503 28.494 73.4183 27.714C72.9983 26.934 72.7883 26.034 72.7883 25.014C72.7883 23.982 72.9983 23.076 73.4183 22.296C73.8383 21.516 74.4263 20.916 75.1823 20.496C75.9383 20.076 76.8083 19.866 77.7923 19.866C78.7403 19.866 79.5863 20.07 80.3303 20.478C81.0863 20.886 81.6683 21.468 82.0763 22.224C82.4963 22.968 82.7063 23.826 82.7063 24.798ZM80.0963 24.078C80.0843 23.43 79.8503 22.914 79.3943 22.53C78.9383 22.134 78.3803 21.936 77.7203 21.936C77.0963 21.936 76.5683 22.128 76.1363 22.512C75.7163 22.884 75.4583 23.406 75.3623 24.078H80.0963ZM94.0657 24.798C94.0657 25.158 94.0417 25.482 93.9937 25.77H86.7037C86.7637 26.49 87.0157 27.054 87.4597 27.462C87.9037 27.87 88.4497 28.074 89.0977 28.074C90.0337 28.074 90.6997 27.672 91.0957 26.868H93.8137C93.5257 27.828 92.9737 28.62 92.1577 29.244C91.3417 29.856 90.3397 30.162 89.1517 30.162C88.1917 30.162 87.3277 29.952 86.5597 29.532C85.8037 29.1 85.2097 28.494 84.7777 27.714C84.3577 26.934 84.1477 26.034 84.1477 25.014C84.1477 23.982 84.3577 23.076 84.7777 22.296C85.1977 21.516 85.7857 20.916 86.5417 20.496C87.2977 20.076 88.1677 19.866 89.1517 19.866C90.0997 19.866 90.9457 20.07 91.6897 20.478C92.4457 20.886 93.0277 21.468 93.4357 22.224C93.8557 22.968 94.0657 23.826 94.0657 24.798ZM91.4557 24.078C91.4437 23.43 91.2097 22.914 90.7537 22.53C90.2977 22.134 89.7397 21.936 89.0797 21.936C88.4557 21.936 87.9277 22.128 87.4957 22.512C87.0757 22.884 86.8177 23.406 86.7217 24.078H91.4557ZM95.5071 24.978C95.5071 23.97 95.7051 23.076 96.1011 22.296C96.5091 21.516 97.0611 20.916 97.7571 20.496C98.4531 20.076 99.2271 19.866 100.079 19.866C100.727 19.866 101.345 20.01 101.933 20.298C102.521 20.574 102.989 20.946 103.337 21.414V16.68H105.893V30H103.337V28.524C103.025 29.016 102.587 29.412 102.023 29.712C101.459 30.012 100.805 30.162 100.061 30.162C99.2211 30.162 98.4531 29.946 97.7571 29.514C97.0611 29.082 96.5091 28.476 96.1011 27.696C95.7051 26.904 95.5071 25.998 95.5071 24.978ZM103.355 25.014C103.355 24.402 103.235 23.88 102.995 23.448C102.755 23.004 102.431 22.668 102.023 22.44C101.615 22.2 101.177 22.08 100.709 22.08C100.241 22.08 99.8091 22.194 99.4131 22.422C99.0171 22.65 98.6931 22.986 98.4411 23.43C98.2011 23.862 98.0811 24.378 98.0811 24.978C98.0811 25.578 98.2011 26.106 98.4411 26.562C98.6931 27.006 99.0171 27.348 99.4131 27.588C99.8211 27.828 100.253 27.948 100.709 27.948C101.177 27.948 101.615 27.834 102.023 27.606C102.431 27.366 102.755 27.03 102.995 26.598C103.235 26.154 103.355 25.626 103.355 25.014ZM111.124 21.486C111.448 21.006 111.892 20.616 112.456 20.316C113.032 20.016 113.686 19.866 114.418 19.866C115.27 19.866 116.038 20.076 116.722 20.496C117.418 20.916 117.964 21.516 118.36 22.296C118.768 23.064 118.972 23.958 118.972 24.978C118.972 25.998 118.768 26.904 118.36 27.696C117.964 28.476 117.418 29.082 116.722 29.514C116.038 29.946 115.27 30.162 114.418 30.162C113.674 30.162 113.02 30.018 112.456 29.73C111.904 29.43 111.46 29.046 111.124 28.578V30H108.604V16.68H111.124V21.486ZM116.398 24.978C116.398 24.378 116.272 23.862 116.02 23.43C115.78 22.986 115.456 22.65 115.048 22.422C114.652 22.194 114.22 22.08 113.752 22.08C113.296 22.08 112.864 22.2 112.456 22.44C112.06 22.668 111.736 23.004 111.484 23.448C111.244 23.892 111.124 24.414 111.124 25.014C111.124 25.614 111.244 26.136 111.484 26.58C111.736 27.024 112.06 27.366 112.456 27.606C112.864 27.834 113.296 27.948 113.752 27.948C114.22 27.948 114.652 27.828 115.048 27.588C115.456 27.348 115.78 27.006 116.02 26.562C116.272 26.118 116.398 25.59 116.398 24.978ZM120.406 24.978C120.406 23.97 120.604 23.076 121 22.296C121.408 21.516 121.954 20.916 122.638 20.496C123.334 20.076 124.108 19.866 124.96 19.866C125.704 19.866 126.352 20.016 126.904 20.316C127.468 20.616 127.918 20.994 128.254 21.45V20.028H130.792V30H128.254V28.542C127.93 29.01 127.48 29.4 126.904 29.712C126.34 30.012 125.686 30.162 124.942 30.162C124.102 30.162 123.334 29.946 122.638 29.514C121.954 29.082 121.408 28.476 121 27.696C120.604 26.904 120.406 25.998 120.406 24.978ZM128.254 25.014C128.254 24.402 128.134 23.88 127.894 23.448C127.654 23.004 127.33 22.668 126.922 22.44C126.514 22.2 126.076 22.08 125.608 22.08C125.14 22.08 124.708 22.194 124.312 22.422C123.916 22.65 123.592 22.986 123.34 23.43C123.1 23.862 122.98 24.378 122.98 24.978C122.98 25.578 123.1 26.106 123.34 26.562C123.592 27.006 123.916 27.348 124.312 27.588C124.72 27.828 125.152 27.948 125.608 27.948C126.076 27.948 126.514 27.834 126.922 27.606C127.33 27.366 127.654 27.03 127.894 26.598C128.134 26.154 128.254 25.626 128.254 25.014ZM132.855 25.014C132.855 23.982 133.065 23.082 133.485 22.314C133.905 21.534 134.487 20.934 135.231 20.514C135.975 20.082 136.827 19.866 137.787 19.866C139.023 19.866 140.043 20.178 140.847 20.802C141.663 21.414 142.209 22.278 142.485 23.394H139.767C139.623 22.962 139.377 22.626 139.029 22.386C138.693 22.134 138.273 22.008 137.769 22.008C137.049 22.008 136.479 22.272 136.059 22.8C135.639 23.316 135.429 24.054 135.429 25.014C135.429 25.962 135.639 26.7 136.059 27.228C136.479 27.744 137.049 28.002 137.769 28.002C138.789 28.002 139.455 27.546 139.767 26.634H142.485C142.209 27.714 141.663 28.572 140.847 29.208C140.031 29.844 139.011 30.162 137.787 30.162C136.827 30.162 135.975 29.952 135.231 29.532C134.487 29.1 133.905 28.5 133.485 27.732C133.065 26.952 132.855 26.046 132.855 25.014ZM150.485 30L147.101 25.752V30H144.581V16.68H147.101V24.258L150.449 20.028H153.725L149.333 25.032L153.761 30H150.485Z" fill="#34C94B"/>
</svg>
