<svg width="568" height="48" viewBox="0 0 568 48" fill="none" xmlns="http://www.w3.org/2000/svg">
<rect x="0.5" y="0.5" width="567" height="47" rx="7.5" fill="white" stroke="#121212"/>
<path d="M502.5 0.5H560C564.142 0.5 567.5 3.85786 567.5 8V40C567.5 44.1421 564.142 47.5 560 47.5H502.5V0.5Z" fill="white" stroke="#121212"/>
<path d="M27.328 20.328C27.28 20.408 27.2267 20.4693 27.168 20.512C27.1147 20.5493 27.048 20.568 26.968 20.568C26.8773 20.568 26.7707 20.5227 26.648 20.432C26.5253 20.3413 26.3707 20.2427 26.184 20.136C26.0027 20.024 25.7813 19.9227 25.52 19.832C25.264 19.7413 24.952 19.696 24.584 19.696C24.2373 19.696 23.9307 19.744 23.664 19.84C23.4027 19.9307 23.1813 20.056 23 20.216C22.824 20.376 22.6907 20.5653 22.6 20.784C22.5093 20.9973 22.464 21.2293 22.464 21.48C22.464 21.8 22.5413 22.0667 22.696 22.28C22.856 22.488 23.064 22.6667 23.32 22.816C23.5813 22.9653 23.8747 23.096 24.2 23.208C24.5307 23.3147 24.8667 23.4267 25.208 23.544C25.5547 23.6613 25.8907 23.7947 26.216 23.944C26.5467 24.088 26.84 24.272 27.096 24.496C27.3573 24.72 27.5653 24.9947 27.72 25.32C27.88 25.6453 27.96 26.0453 27.96 26.52C27.96 27.0213 27.8747 27.4933 27.704 27.936C27.5333 28.3733 27.2827 28.7547 26.952 29.08C26.6267 29.4053 26.224 29.6613 25.744 29.848C25.2693 30.0347 24.728 30.128 24.12 30.128C23.3733 30.128 22.696 29.9947 22.088 29.728C21.48 29.456 20.96 29.0907 20.528 28.632L20.976 27.896C21.0187 27.8373 21.0693 27.7893 21.128 27.752C21.192 27.7093 21.2613 27.688 21.336 27.688C21.4053 27.688 21.4827 27.7173 21.568 27.776C21.6587 27.8293 21.76 27.8987 21.872 27.984C21.984 28.0693 22.112 28.1627 22.256 28.264C22.4 28.3653 22.5627 28.4587 22.744 28.544C22.9307 28.6293 23.1413 28.7013 23.376 28.76C23.6107 28.8133 23.8747 28.84 24.168 28.84C24.536 28.84 24.864 28.7893 25.152 28.688C25.44 28.5867 25.6827 28.4453 25.88 28.264C26.0827 28.0773 26.2373 27.856 26.344 27.6C26.4507 27.344 26.504 27.0587 26.504 26.744C26.504 26.3973 26.424 26.1147 26.264 25.896C26.1093 25.672 25.904 25.4853 25.648 25.336C25.392 25.1867 25.0987 25.0613 24.768 24.96C24.4373 24.8533 24.1013 24.7467 23.76 24.64C23.4187 24.528 23.0827 24.4 22.752 24.256C22.4213 24.112 22.128 23.9253 21.872 23.696C21.616 23.4667 21.408 23.1813 21.248 22.84C21.0933 22.4933 21.016 22.0667 21.016 21.56C21.016 21.1547 21.0933 20.7627 21.248 20.384C21.408 20.0053 21.6373 19.6693 21.936 19.376C22.24 19.0827 22.6107 18.848 23.048 18.672C23.4907 18.496 23.9973 18.408 24.568 18.408C25.208 18.408 25.7893 18.5093 26.312 18.712C26.84 18.9147 27.304 19.208 27.704 19.592L27.328 20.328ZM35.3926 25.064C35.3926 24.7333 35.3446 24.432 35.2486 24.16C35.158 23.8827 35.022 23.6453 34.8406 23.448C34.6646 23.2453 34.4486 23.0907 34.1926 22.984C33.9366 22.872 33.646 22.816 33.3206 22.816C32.638 22.816 32.0966 23.016 31.6966 23.416C31.302 23.8107 31.0566 24.36 30.9606 25.064H35.3926ZM36.5446 28.864C36.3686 29.0773 36.158 29.264 35.9126 29.424C35.6673 29.5787 35.4033 29.7067 35.1206 29.808C34.8433 29.9093 34.5553 29.984 34.2566 30.032C33.958 30.0853 33.662 30.112 33.3686 30.112C32.8086 30.112 32.2913 30.0187 31.8166 29.832C31.3473 29.64 30.9393 29.3627 30.5926 29C30.2513 28.632 29.9846 28.1787 29.7926 27.64C29.6006 27.1013 29.5046 26.4827 29.5046 25.784C29.5046 25.2187 29.59 24.6907 29.7606 24.2C29.9366 23.7093 30.1873 23.2853 30.5126 22.928C30.838 22.5653 31.2353 22.2827 31.7046 22.08C32.174 21.872 32.702 21.768 33.2886 21.768C33.774 21.768 34.222 21.8507 34.6326 22.016C35.0486 22.176 35.406 22.4107 35.7046 22.72C36.0086 23.024 36.246 23.4027 36.4166 23.856C36.5873 24.304 36.6726 24.816 36.6726 25.392C36.6726 25.616 36.6486 25.7653 36.6006 25.84C36.5526 25.9147 36.462 25.952 36.3286 25.952H30.9126C30.9286 26.464 30.998 26.9093 31.1206 27.288C31.2486 27.6667 31.4246 27.984 31.6486 28.24C31.8726 28.4907 32.1393 28.68 32.4486 28.808C32.758 28.9307 33.1046 28.992 33.4886 28.992C33.846 28.992 34.1526 28.952 34.4086 28.872C34.67 28.7867 34.894 28.696 35.0806 28.6C35.2673 28.504 35.422 28.416 35.5446 28.336C35.6726 28.2507 35.782 28.208 35.8726 28.208C35.99 28.208 36.0806 28.2533 36.1446 28.344L36.5446 28.864ZM43.0138 26.352C42.3577 26.3733 41.7977 26.4267 41.3337 26.512C40.8751 26.592 40.4991 26.6987 40.2057 26.832C39.9177 26.9653 39.7071 27.1227 39.5737 27.304C39.4457 27.4853 39.3817 27.688 39.3817 27.912C39.3817 28.1253 39.4164 28.3093 39.4857 28.464C39.5551 28.6187 39.6484 28.7467 39.7657 28.848C39.8884 28.944 40.0297 29.016 40.1897 29.064C40.3551 29.1067 40.5311 29.128 40.7177 29.128C40.9684 29.128 41.1977 29.104 41.4057 29.056C41.6137 29.0027 41.8084 28.928 41.9897 28.832C42.1764 28.736 42.3524 28.6213 42.5177 28.488C42.6884 28.3547 42.8537 28.2027 43.0138 28.032V26.352ZM38.4137 23.04C38.8617 22.608 39.3444 22.2853 39.8617 22.072C40.3791 21.8587 40.9524 21.752 41.5817 21.752C42.0351 21.752 42.4377 21.8267 42.7898 21.976C43.1418 22.1253 43.4378 22.3333 43.6778 22.6C43.9177 22.8667 44.0991 23.1893 44.2217 23.568C44.3444 23.9467 44.4057 24.3627 44.4057 24.816V30H43.7737C43.6351 30 43.5284 29.9787 43.4538 29.936C43.3791 29.888 43.3204 29.7973 43.2778 29.664L43.1177 28.896C42.9044 29.0933 42.6964 29.2693 42.4937 29.424C42.2911 29.5733 42.0777 29.7013 41.8537 29.808C41.6297 29.9093 41.3897 29.9867 41.1337 30.04C40.8831 30.0987 40.6031 30.128 40.2937 30.128C39.9791 30.128 39.6831 30.0853 39.4057 30C39.1284 29.9093 38.8857 29.776 38.6777 29.6C38.4751 29.424 38.3124 29.2027 38.1897 28.936C38.0724 28.664 38.0137 28.344 38.0137 27.976C38.0137 27.656 38.1017 27.3493 38.2777 27.056C38.4537 26.7573 38.7391 26.4933 39.1337 26.264C39.5284 26.0347 40.0431 25.848 40.6777 25.704C41.3124 25.5547 42.0911 25.4693 43.0138 25.448V24.816C43.0138 24.1867 42.8778 23.712 42.6058 23.392C42.3337 23.0667 41.9364 22.904 41.4137 22.904C41.0617 22.904 40.7657 22.9493 40.5257 23.04C40.2911 23.1253 40.0857 23.224 39.9097 23.336C39.7391 23.4427 39.5897 23.5413 39.4617 23.632C39.3391 23.7173 39.2164 23.76 39.0937 23.76C38.9977 23.76 38.9151 23.736 38.8457 23.688C38.7764 23.6347 38.7177 23.5707 38.6697 23.496L38.4137 23.04ZM48.1269 23.52C48.3829 22.9653 48.6975 22.5333 49.0709 22.224C49.4442 21.9093 49.9002 21.752 50.4389 21.752C50.6095 21.752 50.7722 21.7707 50.9269 21.808C51.0869 21.8453 51.2282 21.904 51.3509 21.984L51.2469 23.048C51.2149 23.1813 51.1349 23.248 51.0069 23.248C50.9322 23.248 50.8229 23.232 50.6789 23.2C50.5349 23.168 50.3722 23.152 50.1909 23.152C49.9349 23.152 49.7055 23.1893 49.5029 23.264C49.3055 23.3387 49.1269 23.4507 48.9669 23.6C48.8122 23.744 48.6709 23.9253 48.5429 24.144C48.4202 24.3573 48.3082 24.6027 48.2069 24.88V30H46.7749V21.896H47.5909C47.7455 21.896 47.8522 21.9253 47.9109 21.984C47.9695 22.0427 48.0095 22.144 48.0309 22.288L48.1269 23.52ZM58.1149 23.336C58.0722 23.3947 58.0295 23.44 57.9869 23.472C57.9442 23.504 57.8855 23.52 57.8109 23.52C57.7309 23.52 57.6429 23.488 57.5469 23.424C57.4509 23.3547 57.3309 23.28 57.1869 23.2C57.0482 23.12 56.8749 23.048 56.6669 22.984C56.4642 22.9147 56.2135 22.88 55.9149 22.88C55.5149 22.88 55.1629 22.952 54.8589 23.096C54.5549 23.2347 54.2989 23.4373 54.0909 23.704C53.8882 23.9707 53.7335 24.2933 53.6269 24.672C53.5255 25.0507 53.4749 25.4747 53.4749 25.944C53.4749 26.4347 53.5309 26.872 53.6429 27.256C53.7549 27.6347 53.9122 27.9547 54.1149 28.216C54.3229 28.472 54.5709 28.6693 54.8589 28.808C55.1522 28.9413 55.4802 29.008 55.8429 29.008C56.1895 29.008 56.4749 28.968 56.6989 28.888C56.9229 28.8027 57.1069 28.7093 57.2509 28.608C57.4002 28.5067 57.5229 28.416 57.6189 28.336C57.7202 28.2507 57.8189 28.208 57.9149 28.208C58.0322 28.208 58.1229 28.2533 58.1869 28.344L58.5869 28.864C58.4109 29.0827 58.2109 29.2693 57.9869 29.424C57.7629 29.5787 57.5202 29.7093 57.2589 29.816C57.0029 29.9173 56.7335 29.992 56.4509 30.04C56.1682 30.088 55.8802 30.112 55.5869 30.112C55.0802 30.112 54.6082 30.0187 54.1709 29.832C53.7389 29.6453 53.3629 29.376 53.0429 29.024C52.7229 28.6667 52.4722 28.2293 52.2909 27.712C52.1095 27.1947 52.0189 26.6053 52.0189 25.944C52.0189 25.3413 52.1015 24.784 52.2669 24.272C52.4375 23.76 52.6829 23.32 53.0029 22.952C53.3282 22.5787 53.7255 22.288 54.1949 22.08C54.6695 21.872 55.2135 21.768 55.8269 21.768C56.3975 21.768 56.8989 21.8613 57.3309 22.048C57.7682 22.2293 58.1549 22.488 58.4909 22.824L58.1149 23.336ZM61.7475 22.976C62.0942 22.608 62.4782 22.3147 62.8995 22.096C63.3208 21.8773 63.8062 21.768 64.3555 21.768C64.7982 21.768 65.1875 21.8427 65.5235 21.992C65.8648 22.136 66.1475 22.344 66.3715 22.616C66.6008 22.8827 66.7742 23.2053 66.8915 23.584C67.0088 23.9627 67.0675 24.3813 67.0675 24.84V30H65.6355V24.84C65.6355 24.2267 65.4942 23.752 65.2115 23.416C64.9342 23.0747 64.5102 22.904 63.9395 22.904C63.5182 22.904 63.1235 23.0053 62.7555 23.208C62.3928 23.4107 62.0568 23.6853 61.7475 24.032V30H60.3155V18.216H61.7475V22.976ZM78.1231 26.352C77.4671 26.3733 76.9071 26.4267 76.4431 26.512C75.9845 26.592 75.6085 26.6987 75.3151 26.832C75.0271 26.9653 74.8165 27.1227 74.6831 27.304C74.5551 27.4853 74.4911 27.688 74.4911 27.912C74.4911 28.1253 74.5258 28.3093 74.5951 28.464C74.6645 28.6187 74.7578 28.7467 74.8751 28.848C74.9978 28.944 75.1391 29.016 75.2991 29.064C75.4645 29.1067 75.6405 29.128 75.8271 29.128C76.0778 29.128 76.3071 29.104 76.5151 29.056C76.7231 29.0027 76.9178 28.928 77.0991 28.832C77.2858 28.736 77.4618 28.6213 77.6271 28.488C77.7978 28.3547 77.9631 28.2027 78.1231 28.032V26.352ZM73.5231 23.04C73.9711 22.608 74.4538 22.2853 74.9711 22.072C75.4885 21.8587 76.0618 21.752 76.6911 21.752C77.1445 21.752 77.5471 21.8267 77.8991 21.976C78.2511 22.1253 78.5471 22.3333 78.7871 22.6C79.0271 22.8667 79.2085 23.1893 79.3311 23.568C79.4538 23.9467 79.5151 24.3627 79.5151 24.816V30H78.8831C78.7445 30 78.6378 29.9787 78.5631 29.936C78.4885 29.888 78.4298 29.7973 78.3871 29.664L78.2271 28.896C78.0138 29.0933 77.8058 29.2693 77.6031 29.424C77.4005 29.5733 77.1871 29.7013 76.9631 29.808C76.7391 29.9093 76.4991 29.9867 76.2431 30.04C75.9925 30.0987 75.7125 30.128 75.4031 30.128C75.0885 30.128 74.7925 30.0853 74.5151 30C74.2378 29.9093 73.9951 29.776 73.7871 29.6C73.5845 29.424 73.4218 29.2027 73.2991 28.936C73.1818 28.664 73.1231 28.344 73.1231 27.976C73.1231 27.656 73.2111 27.3493 73.3871 27.056C73.5631 26.7573 73.8485 26.4933 74.2431 26.264C74.6378 26.0347 75.1525 25.848 75.7871 25.704C76.4218 25.5547 77.2005 25.4693 78.1231 25.448V24.816C78.1231 24.1867 77.9871 23.712 77.7151 23.392C77.4431 23.0667 77.0458 22.904 76.5231 22.904C76.1711 22.904 75.8751 22.9493 75.6351 23.04C75.4005 23.1253 75.1951 23.224 75.0191 23.336C74.8485 23.4427 74.6991 23.5413 74.5711 23.632C74.4485 23.7173 74.3258 23.76 74.2031 23.76C74.1071 23.76 74.0245 23.736 73.9551 23.688C73.8858 23.6347 73.8271 23.5707 73.7791 23.496L73.5231 23.04ZM90.57 26.352C89.914 26.3733 89.354 26.4267 88.89 26.512C88.4313 26.592 88.0553 26.6987 87.762 26.832C87.474 26.9653 87.2633 27.1227 87.13 27.304C87.002 27.4853 86.938 27.688 86.938 27.912C86.938 28.1253 86.9727 28.3093 87.042 28.464C87.1113 28.6187 87.2047 28.7467 87.322 28.848C87.4447 28.944 87.586 29.016 87.746 29.064C87.9113 29.1067 88.0873 29.128 88.274 29.128C88.5247 29.128 88.754 29.104 88.962 29.056C89.17 29.0027 89.3647 28.928 89.546 28.832C89.7327 28.736 89.9087 28.6213 90.074 28.488C90.2447 28.3547 90.41 28.2027 90.57 28.032V26.352ZM85.97 23.04C86.418 22.608 86.9007 22.2853 87.418 22.072C87.9353 21.8587 88.5087 21.752 89.138 21.752C89.5913 21.752 89.994 21.8267 90.346 21.976C90.698 22.1253 90.994 22.3333 91.234 22.6C91.474 22.8667 91.6553 23.1893 91.778 23.568C91.9007 23.9467 91.962 24.3627 91.962 24.816V30H91.33C91.1913 30 91.0847 29.9787 91.01 29.936C90.9353 29.888 90.8767 29.7973 90.834 29.664L90.674 28.896C90.4607 29.0933 90.2527 29.2693 90.05 29.424C89.8473 29.5733 89.634 29.7013 89.41 29.808C89.186 29.9093 88.946 29.9867 88.69 30.04C88.4393 30.0987 88.1593 30.128 87.85 30.128C87.5353 30.128 87.2393 30.0853 86.962 30C86.6847 29.9093 86.442 29.776 86.234 29.6C86.0313 29.424 85.8687 29.2027 85.746 28.936C85.6287 28.664 85.57 28.344 85.57 27.976C85.57 27.656 85.658 27.3493 85.834 27.056C86.01 26.7573 86.2953 26.4933 86.69 26.264C87.0847 26.0347 87.5993 25.848 88.234 25.704C88.8687 25.5547 89.6473 25.4693 90.57 25.448V24.816C90.57 24.1867 90.434 23.712 90.162 23.392C89.89 23.0667 89.4927 22.904 88.97 22.904C88.618 22.904 88.322 22.9493 88.082 23.04C87.8473 23.1253 87.642 23.224 87.466 23.336C87.2953 23.4427 87.146 23.5413 87.018 23.632C86.8953 23.7173 86.7727 23.76 86.65 23.76C86.554 23.76 86.4713 23.736 86.402 23.688C86.3327 23.6347 86.274 23.5707 86.226 23.496L85.97 23.04ZM95.8031 18.216V30H94.3791V18.216H95.8031ZM99.7444 28.048C100.006 28.4 100.291 28.648 100.6 28.792C100.915 28.936 101.259 29.008 101.632 29.008C102.395 29.008 102.979 28.7387 103.384 28.2C103.79 27.6613 103.992 26.8587 103.992 25.792C103.992 24.8 103.811 24.072 103.448 23.608C103.091 23.1387 102.579 22.904 101.912 22.904C101.448 22.904 101.043 23.0107 100.696 23.224C100.355 23.4373 100.038 23.7387 99.7444 24.128V28.048ZM99.7444 23.064C100.086 22.6693 100.47 22.3547 100.896 22.12C101.328 21.8853 101.824 21.768 102.384 21.768C102.859 21.768 103.286 21.8587 103.664 22.04C104.048 22.2213 104.374 22.4853 104.64 22.832C104.907 23.1733 105.11 23.5893 105.248 24.08C105.392 24.5707 105.464 25.1227 105.464 25.736C105.464 26.392 105.384 26.9893 105.224 27.528C105.064 28.0667 104.832 28.528 104.528 28.912C104.23 29.2907 103.864 29.5867 103.432 29.8C103 30.008 102.515 30.112 101.976 30.112C101.443 30.112 100.992 30.0133 100.624 29.816C100.262 29.6133 99.9444 29.328 99.6724 28.96L99.6004 29.696C99.5577 29.8987 99.435 30 99.2324 30H98.3124V18.216H99.7444V23.064ZM114.13 21.896V30H113.282C113.079 30 112.951 29.9013 112.898 29.704L112.786 28.832C112.434 29.2213 112.039 29.536 111.602 29.776C111.164 30.0107 110.663 30.128 110.098 30.128C109.655 30.128 109.263 30.056 108.922 29.912C108.586 29.7627 108.303 29.5547 108.074 29.288C107.844 29.0213 107.671 28.6987 107.554 28.32C107.442 27.9413 107.386 27.5227 107.386 27.064V21.896H108.81V27.064C108.81 27.6773 108.948 28.152 109.226 28.488C109.508 28.824 109.938 28.992 110.514 28.992C110.935 28.992 111.327 28.8933 111.69 28.696C112.058 28.4933 112.396 28.216 112.706 27.864V21.896H114.13ZM116.587 30V21.896H117.443C117.646 21.896 117.771 21.9947 117.819 22.192L117.923 23.024C118.222 22.656 118.558 22.3547 118.931 22.12C119.305 21.8853 119.737 21.768 120.227 21.768C120.771 21.768 121.211 21.92 121.547 22.224C121.889 22.528 122.134 22.9387 122.283 23.456C122.401 23.1627 122.55 22.9093 122.731 22.696C122.918 22.4827 123.126 22.3067 123.355 22.168C123.585 22.0293 123.827 21.928 124.083 21.864C124.345 21.8 124.609 21.768 124.875 21.768C125.302 21.768 125.681 21.8373 126.011 21.976C126.347 22.1093 126.63 22.3067 126.859 22.568C127.094 22.8293 127.273 23.152 127.395 23.536C127.518 23.9147 127.579 24.3493 127.579 24.84V30H126.147V24.84C126.147 24.2053 126.009 23.7253 125.731 23.4C125.454 23.0693 125.054 22.904 124.531 22.904C124.297 22.904 124.073 22.9467 123.859 23.032C123.651 23.112 123.467 23.232 123.307 23.392C123.147 23.552 123.019 23.7547 122.923 24C122.833 24.24 122.787 24.52 122.787 24.84V30H121.355V24.84C121.355 24.1893 121.225 23.704 120.963 23.384C120.702 23.064 120.321 22.904 119.819 22.904C119.467 22.904 119.142 23 118.843 23.192C118.545 23.3787 118.27 23.6347 118.019 23.96V30H116.587ZM137.653 21.768C138.245 21.768 138.779 21.8667 139.253 22.064C139.728 22.2613 140.133 22.5413 140.469 22.904C140.805 23.2667 141.061 23.7067 141.237 24.224C141.419 24.736 141.509 25.3093 141.509 25.944C141.509 26.584 141.419 27.16 141.237 27.672C141.061 28.184 140.805 28.6213 140.469 28.984C140.133 29.3467 139.728 29.6267 139.253 29.824C138.779 30.016 138.245 30.112 137.653 30.112C137.056 30.112 136.517 30.016 136.037 29.824C135.563 29.6267 135.157 29.3467 134.821 28.984C134.485 28.6213 134.227 28.184 134.045 27.672C133.869 27.16 133.781 26.584 133.781 25.944C133.781 25.3093 133.869 24.736 134.045 24.224C134.227 23.7067 134.485 23.2667 134.821 22.904C135.157 22.5413 135.563 22.2613 136.037 22.064C136.517 21.8667 137.056 21.768 137.653 21.768ZM137.653 29C138.453 29 139.051 28.7333 139.445 28.2C139.84 27.6613 140.037 26.912 140.037 25.952C140.037 24.9867 139.84 24.2347 139.445 23.696C139.051 23.1573 138.453 22.888 137.653 22.888C137.248 22.888 136.893 22.9573 136.589 23.096C136.291 23.2347 136.04 23.4347 135.837 23.696C135.64 23.9573 135.491 24.28 135.389 24.664C135.293 25.0427 135.245 25.472 135.245 25.952C135.245 26.912 135.443 27.6613 135.837 28.2C136.237 28.7333 136.843 29 137.653 29ZM143.872 30V23.112L142.976 23.008C142.864 22.9813 142.77 22.9413 142.696 22.888C142.626 22.8293 142.592 22.7467 142.592 22.64V22.056H143.872V21.272C143.872 20.808 143.936 20.3973 144.064 20.04C144.197 19.6773 144.384 19.3733 144.624 19.128C144.869 18.8773 145.162 18.688 145.504 18.56C145.845 18.432 146.229 18.368 146.656 18.368C147.018 18.368 147.352 18.4213 147.656 18.528L147.624 19.24C147.613 19.368 147.541 19.4373 147.408 19.448C147.28 19.4587 147.106 19.464 146.888 19.464C146.642 19.464 146.418 19.496 146.216 19.56C146.018 19.624 145.848 19.728 145.704 19.872C145.56 20.016 145.448 20.2053 145.368 20.44C145.293 20.6747 145.256 20.9653 145.256 21.312V22.056H147.592V23.088H145.304V30H143.872ZM159.736 21.896L155.216 32.392C155.168 32.4987 155.106 32.584 155.032 32.648C154.962 32.712 154.853 32.744 154.704 32.744H153.648L155.128 29.528L151.784 21.896H153.016C153.138 21.896 153.234 21.928 153.304 21.992C153.378 22.0507 153.429 22.1173 153.456 22.192L155.624 27.296C155.709 27.52 155.781 27.7547 155.84 28C155.914 27.7493 155.994 27.512 156.08 27.288L158.184 22.192C158.216 22.1067 158.269 22.0373 158.344 21.984C158.424 21.9253 158.512 21.896 158.608 21.896H159.736ZM164.391 21.768C164.983 21.768 165.516 21.8667 165.991 22.064C166.466 22.2613 166.871 22.5413 167.207 22.904C167.543 23.2667 167.799 23.7067 167.975 24.224C168.156 24.736 168.247 25.3093 168.247 25.944C168.247 26.584 168.156 27.16 167.975 27.672C167.799 28.184 167.543 28.6213 167.207 28.984C166.871 29.3467 166.466 29.6267 165.991 29.824C165.516 30.016 164.983 30.112 164.391 30.112C163.794 30.112 163.255 30.016 162.775 29.824C162.3 29.6267 161.895 29.3467 161.559 28.984C161.223 28.6213 160.964 28.184 160.783 27.672C160.607 27.16 160.519 26.584 160.519 25.944C160.519 25.3093 160.607 24.736 160.783 24.224C160.964 23.7067 161.223 23.2667 161.559 22.904C161.895 22.5413 162.3 22.2613 162.775 22.064C163.255 21.8667 163.794 21.768 164.391 21.768ZM164.391 29C165.191 29 165.788 28.7333 166.183 28.2C166.578 27.6613 166.775 26.912 166.775 25.952C166.775 24.9867 166.578 24.2347 166.183 23.696C165.788 23.1573 165.191 22.888 164.391 22.888C163.986 22.888 163.631 22.9573 163.327 23.096C163.028 23.2347 162.778 23.4347 162.575 23.696C162.378 23.9573 162.228 24.28 162.127 24.664C162.031 25.0427 161.983 25.472 161.983 25.952C161.983 26.912 162.18 27.6613 162.575 28.2C162.975 28.7333 163.58 29 164.391 29ZM176.917 21.896V30H176.069C175.866 30 175.738 29.9013 175.685 29.704L175.573 28.832C175.221 29.2213 174.826 29.536 174.389 29.776C173.952 30.0107 173.45 30.128 172.885 30.128C172.442 30.128 172.05 30.056 171.709 29.912C171.373 29.7627 171.09 29.5547 170.861 29.288C170.632 29.0213 170.458 28.6987 170.341 28.32C170.229 27.9413 170.173 27.5227 170.173 27.064V21.896H171.597V27.064C171.597 27.6773 171.736 28.152 172.013 28.488C172.296 28.824 172.725 28.992 173.301 28.992C173.722 28.992 174.114 28.8933 174.477 28.696C174.845 28.4933 175.184 28.216 175.493 27.864V21.896H176.917ZM180.727 23.52C180.983 22.9653 181.298 22.5333 181.671 22.224C182.044 21.9093 182.5 21.752 183.039 21.752C183.21 21.752 183.372 21.7707 183.527 21.808C183.687 21.8453 183.828 21.904 183.951 21.984L183.847 23.048C183.815 23.1813 183.735 23.248 183.607 23.248C183.532 23.248 183.423 23.232 183.279 23.2C183.135 23.168 182.972 23.152 182.791 23.152C182.535 23.152 182.306 23.1893 182.103 23.264C181.906 23.3387 181.727 23.4507 181.567 23.6C181.412 23.744 181.271 23.9253 181.143 24.144C181.02 24.3573 180.908 24.6027 180.807 24.88V30H179.375V21.896H180.191C180.346 21.896 180.452 21.9253 180.511 21.984C180.57 22.0427 180.61 22.144 180.631 22.288L180.727 23.52ZM194.993 23.336C194.95 23.3947 194.908 23.44 194.865 23.472C194.822 23.504 194.764 23.52 194.689 23.52C194.609 23.52 194.521 23.488 194.425 23.424C194.329 23.3547 194.209 23.28 194.065 23.2C193.926 23.12 193.753 23.048 193.545 22.984C193.342 22.9147 193.092 22.88 192.793 22.88C192.393 22.88 192.041 22.952 191.737 23.096C191.433 23.2347 191.177 23.4373 190.969 23.704C190.766 23.9707 190.612 24.2933 190.505 24.672C190.404 25.0507 190.353 25.4747 190.353 25.944C190.353 26.4347 190.409 26.872 190.521 27.256C190.633 27.6347 190.79 27.9547 190.993 28.216C191.201 28.472 191.449 28.6693 191.737 28.808C192.03 28.9413 192.358 29.008 192.721 29.008C193.068 29.008 193.353 28.968 193.577 28.888C193.801 28.8027 193.985 28.7093 194.129 28.608C194.278 28.5067 194.401 28.416 194.497 28.336C194.598 28.2507 194.697 28.208 194.793 28.208C194.91 28.208 195.001 28.2533 195.065 28.344L195.465 28.864C195.289 29.0827 195.089 29.2693 194.865 29.424C194.641 29.5787 194.398 29.7093 194.137 29.816C193.881 29.9173 193.612 29.992 193.329 30.04C193.046 30.088 192.758 30.112 192.465 30.112C191.958 30.112 191.486 30.0187 191.049 29.832C190.617 29.6453 190.241 29.376 189.921 29.024C189.601 28.6667 189.35 28.2293 189.169 27.712C188.988 27.1947 188.897 26.6053 188.897 25.944C188.897 25.3413 188.98 24.784 189.145 24.272C189.316 23.76 189.561 23.32 189.881 22.952C190.206 22.5787 190.604 22.288 191.073 22.08C191.548 21.872 192.092 21.768 192.705 21.768C193.276 21.768 193.777 21.8613 194.209 22.048C194.646 22.2293 195.033 22.488 195.369 22.824L194.993 23.336ZM198.626 22.976C198.972 22.608 199.356 22.3147 199.778 22.096C200.199 21.8773 200.684 21.768 201.234 21.768C201.676 21.768 202.066 21.8427 202.402 21.992C202.743 22.136 203.026 22.344 203.25 22.616C203.479 22.8827 203.652 23.2053 203.77 23.584C203.887 23.9627 203.946 24.3813 203.946 24.84V30H202.514V24.84C202.514 24.2267 202.372 23.752 202.09 23.416C201.812 23.0747 201.388 22.904 200.818 22.904C200.396 22.904 200.002 23.0053 199.634 23.208C199.271 23.4107 198.935 23.6853 198.626 24.032V30H197.194V18.216H198.626V22.976ZM209.732 21.768C210.324 21.768 210.857 21.8667 211.332 22.064C211.806 22.2613 212.212 22.5413 212.548 22.904C212.884 23.2667 213.14 23.7067 213.316 24.224C213.497 24.736 213.588 25.3093 213.588 25.944C213.588 26.584 213.497 27.16 213.316 27.672C213.14 28.184 212.884 28.6213 212.548 28.984C212.212 29.3467 211.806 29.6267 211.332 29.824C210.857 30.016 210.324 30.112 209.732 30.112C209.134 30.112 208.596 30.016 208.116 29.824C207.641 29.6267 207.236 29.3467 206.9 28.984C206.564 28.6213 206.305 28.184 206.124 27.672C205.948 27.16 205.86 26.584 205.86 25.944C205.86 25.3093 205.948 24.736 206.124 24.224C206.305 23.7067 206.564 23.2667 206.9 22.904C207.236 22.5413 207.641 22.2613 208.116 22.064C208.596 21.8667 209.134 21.768 209.732 21.768ZM209.732 29C210.532 29 211.129 28.7333 211.524 28.2C211.918 27.6613 212.116 26.912 212.116 25.952C212.116 24.9867 211.918 24.2347 211.524 23.696C211.129 23.1573 210.532 22.888 209.732 22.888C209.326 22.888 208.972 22.9573 208.668 23.096C208.369 23.2347 208.118 23.4347 207.916 23.696C207.718 23.9573 207.569 24.28 207.468 24.664C207.372 25.0427 207.324 25.472 207.324 25.952C207.324 26.912 207.521 27.6613 207.916 28.2C208.316 28.7333 208.921 29 209.732 29ZM217.098 21.896V30H215.674V21.896H217.098ZM217.402 19.352C217.402 19.4907 217.372 19.6213 217.314 19.744C217.26 19.8613 217.186 19.968 217.09 20.064C216.999 20.1547 216.89 20.2267 216.762 20.28C216.639 20.3333 216.508 20.36 216.37 20.36C216.231 20.36 216.1 20.3333 215.978 20.28C215.86 20.2267 215.756 20.1547 215.666 20.064C215.575 19.968 215.503 19.8613 215.45 19.744C215.396 19.6213 215.37 19.4907 215.37 19.352C215.37 19.2133 215.396 19.0827 215.45 18.96C215.503 18.832 215.575 18.7227 215.666 18.632C215.756 18.536 215.86 18.4613 215.978 18.408C216.1 18.3547 216.231 18.328 216.37 18.328C216.508 18.328 216.639 18.3547 216.762 18.408C216.89 18.4613 216.999 18.536 217.09 18.632C217.186 18.7227 217.26 18.832 217.314 18.96C217.372 19.0827 217.402 19.2133 217.402 19.352ZM225.277 23.336C225.235 23.3947 225.192 23.44 225.149 23.472C225.107 23.504 225.048 23.52 224.973 23.52C224.893 23.52 224.805 23.488 224.709 23.424C224.613 23.3547 224.493 23.28 224.349 23.2C224.211 23.12 224.037 23.048 223.829 22.984C223.627 22.9147 223.376 22.88 223.077 22.88C222.677 22.88 222.325 22.952 222.021 23.096C221.717 23.2347 221.461 23.4373 221.253 23.704C221.051 23.9707 220.896 24.2933 220.789 24.672C220.688 25.0507 220.637 25.4747 220.637 25.944C220.637 26.4347 220.693 26.872 220.805 27.256C220.917 27.6347 221.075 27.9547 221.277 28.216C221.485 28.472 221.733 28.6693 222.021 28.808C222.315 28.9413 222.643 29.008 223.005 29.008C223.352 29.008 223.637 28.968 223.861 28.888C224.085 28.8027 224.269 28.7093 224.413 28.608C224.563 28.5067 224.685 28.416 224.781 28.336C224.883 28.2507 224.981 28.208 225.077 28.208C225.195 28.208 225.285 28.2533 225.349 28.344L225.749 28.864C225.573 29.0827 225.373 29.2693 225.149 29.424C224.925 29.5787 224.683 29.7093 224.421 29.816C224.165 29.9173 223.896 29.992 223.613 30.04C223.331 30.088 223.043 30.112 222.749 30.112C222.243 30.112 221.771 30.0187 221.333 29.832C220.901 29.6453 220.525 29.376 220.205 29.024C219.885 28.6667 219.635 28.2293 219.453 27.712C219.272 27.1947 219.181 26.6053 219.181 25.944C219.181 25.3413 219.264 24.784 219.429 24.272C219.6 23.76 219.845 23.32 220.165 22.952C220.491 22.5787 220.888 22.288 221.357 22.08C221.832 21.872 222.376 21.768 222.989 21.768C223.56 21.768 224.061 21.8613 224.493 22.048C224.931 22.2293 225.317 22.488 225.653 22.824L225.277 23.336ZM232.761 25.064C232.761 24.7333 232.713 24.432 232.617 24.16C232.527 23.8827 232.391 23.6453 232.209 23.448C232.033 23.2453 231.817 23.0907 231.561 22.984C231.305 22.872 231.015 22.816 230.689 22.816C230.007 22.816 229.465 23.016 229.065 23.416C228.671 23.8107 228.425 24.36 228.329 25.064H232.761ZM233.913 28.864C233.737 29.0773 233.527 29.264 233.281 29.424C233.036 29.5787 232.772 29.7067 232.489 29.808C232.212 29.9093 231.924 29.984 231.625 30.032C231.327 30.0853 231.031 30.112 230.737 30.112C230.177 30.112 229.66 30.0187 229.185 29.832C228.716 29.64 228.308 29.3627 227.961 29C227.62 28.632 227.353 28.1787 227.161 27.64C226.969 27.1013 226.873 26.4827 226.873 25.784C226.873 25.2187 226.959 24.6907 227.129 24.2C227.305 23.7093 227.556 23.2853 227.881 22.928C228.207 22.5653 228.604 22.2827 229.073 22.08C229.543 21.872 230.071 21.768 230.657 21.768C231.143 21.768 231.591 21.8507 232.001 22.016C232.417 22.176 232.775 22.4107 233.073 22.72C233.377 23.024 233.615 23.4027 233.785 23.856C233.956 24.304 234.041 24.816 234.041 25.392C234.041 25.616 234.017 25.7653 233.969 25.84C233.921 25.9147 233.831 25.952 233.697 25.952H228.281C228.297 26.464 228.367 26.9093 228.489 27.288C228.617 27.6667 228.793 27.984 229.017 28.24C229.241 28.4907 229.508 28.68 229.817 28.808C230.127 28.9307 230.473 28.992 230.857 28.992C231.215 28.992 231.521 28.952 231.777 28.872C232.039 28.7867 232.263 28.696 232.449 28.6C232.636 28.504 232.791 28.416 232.913 28.336C233.041 28.2507 233.151 28.208 233.241 28.208C233.359 28.208 233.449 28.2533 233.513 28.344L233.913 28.864Z" fill="#121212"/>
<path fill-rule="evenodd" clip-rule="evenodd" d="M539.326 26.8987L544.706 32.2787C544.895 32.468 545.001 32.7246 545.001 32.9921C545.001 33.2596 544.894 33.5161 544.705 33.7052C544.516 33.8943 544.259 34.0005 543.992 34.0004C543.724 34.0003 543.468 33.894 543.279 33.7047L537.899 28.3247C536.29 29.5704 534.268 30.1566 532.243 29.9641C530.218 29.7716 528.342 28.8148 526.997 27.2884C525.652 25.7619 524.94 23.7806 525.004 21.7473C525.068 19.714 525.905 17.7816 527.343 16.3431C528.782 14.9047 530.714 14.0683 532.747 14.004C534.781 13.9397 536.762 14.6525 538.288 15.9972C539.815 17.342 540.772 19.2177 540.964 21.2429C541.157 23.268 540.57 25.2905 539.325 26.8987H539.326ZM533.001 27.9997C534.592 27.9997 536.118 27.3676 537.243 26.2424C538.369 25.1172 539.001 23.591 539.001 21.9997C539.001 20.4084 538.369 18.8823 537.243 17.7571C536.118 16.6319 534.592 15.9997 533.001 15.9997C531.409 15.9997 529.883 16.6319 528.758 17.7571C527.633 18.8823 527.001 20.4084 527.001 21.9997C527.001 23.591 527.633 25.1172 528.758 26.2424C529.883 27.3676 531.409 27.9997 533.001 27.9997Z" fill="#121212"/>
</svg>
